<svg xmlns="http://www.w3.org/2000/svg" viewBox="0 0 40.72 52.11"><g data-name="Layer 2"><path d="M26.18 44.8a10.85 10.85 0 01-.55 3.66 5.32 5.32 0 01-5.27 3.65 5.31 5.31 0 01-5.27-3.65 10.85 10.85 0 01-.55-3.66h11.64zM20.36 2a3.26 3.26 0 110 6.52 3.26 3.26 0 01-3.26-3.26A3.26 3.26 0 0120.36 2m0-2a5.26 5.26 0 105.26 5.26A5.27 5.27 0 0020.36 0z" fill="#b8cbd9"/><path d="M39.31 44.8H1.72c-3 0-1.29-2.73-.8-3.44l.08-.17a20.84 20.84 0 003-8.59 27 27 0 00.31-3.28V24.1c0-11 7.24-14.19 12.33-15.07A20.57 20.57 0 0124 9c5.08.88 12.32 4.09 12.32 15.07v5.22a26.83 26.83 0 00.31 3.28 20.85 20.85 0 003 8.6s2.62 3.42-.32 3.63z" fill="#dae8f2"/></g></svg>