<svg version="1.1" id="Icons" xmlns="http://www.w3.org/2000/svg" x="0" y="0" viewBox="0 0 320.1 121.6" xml:space="preserve"><style>.st1{fill:#6dbbf2}.st2{fill:#87cdff}.st4{fill:#f90}.st7{fill:none;stroke:#c1d4e0;stroke-width:5;stroke-linecap:round;stroke-miterlimit:10}</style><ellipse cx="160.1" cy="98.6" rx="160.1" ry="23.1" fill="#f5f5f7"/><path class="st1" d="M49.3 46.9L32.9 55l11 45.4 15.8-6.2z"/><path class="st2" d="M125 86.4L64.5 98.6 53.9 41.7 125 23z"/><path fill="#baecdd" d="M122.8 63.1L110 56l-7.5 11.9-13.6-13.7-13.7 31.3 50.3-11.6"/><path class="st4" d="M299 56.1l-24.1 46.5-65.5-13.4L225 53.5z"/><path fill="#ffbe5e" d="M284.3 48.3l-9.4 54.3-69.2-14.2 2.2-52.1z"/><path fill="#f5faff" d="M180.3 0H125v105.1h78.5V27.4z"/><path class="st7" d="M140.1 41.7h52m-52 20.7h52"/><path class="st1" d="M60.1 95.9l-16.6 5.8-18-51.4 22.8-8.2"/><path class="st7" d="M140.1 81.4h35.2"/><path class="st2" d="M125 86.4l-63.8 14.5-14.3-64.8L125 18.7"/><path class="st4" d="M242.2 42l.3-10.6-27.8-5-.2 11z"/><circle cx="69.1" cy="50.8" r="7.6" fill="#fff2b0"/><path fill="#88e8b3" d="M124.8 62.7l-15.3-7.4-7.5 11.9-13.7-13.7-13.7 31.3L125 73.2"/><path fill="#c1d4e6" d="M203.3 28.1h-22.7V2.5z"/></svg>