<svg xmlns="http://www.w3.org/2000/svg" viewBox="0 0 103.88 103.88"><defs><style>.cls-3{fill:#e8c290}.cls-6{fill:#80633f}</style></defs><g id="Layer_2" data-name="Layer 2"><g id="Icons"><circle cx="51.94" cy="51.94" r="51.94" fill="#edf1f7"/><circle cx="51.94" cy="51.94" r="47.7" fill="#f9fafc"/><path class="cls-3" d="M46.44 54.49h11.01v7.48H46.44z"/><path d="M68.7 76.62a62.62 62.62 0 009.13-3V67.9a8.76 8.76 0 00-8.77-8.77H34.83a8.76 8.76 0 00-8.77 8.77v5.7a62.09 62.09 0 009.12 3c.64.16 1.28.31 1.94.45L50 78.61h1.92a69.22 69.22 0 0014.83-1.57z" fill="#8ae6ae"/><path class="cls-3" d="M37.77 36.73h.56v6.46h-.56a2.07 2.07 0 01-2.07-2.07v-2.31a2.07 2.07 0 012.07-2.08z"/><path class="cls-3" d="M67.63 36.73h.56v6.46h-.56a2.07 2.07 0 01-2.07-2.07v-2.31a2.07 2.07 0 012.07-2.08z" transform="rotate(180 66.875 39.96)"/><path d="M38.32 31.79h27.24v11.06A13.26 13.26 0 0152.3 56.11h-.72a13.26 13.26 0 01-13.26-13.26V31.79z" fill="#eecda2"/><path class="cls-6" d="M48.07 21.77h7.75a9.74 9.74 0 019.74 9.74v.33H38.32v-.33a9.75 9.75 0 019.75-9.74z"/><rect class="cls-6" x="38.32" y="29.28" width="4.69" height="6.45" rx="2.11" ry="2.11"/><rect class="cls-6" x="58.39" y="27.76" width="4.69" height="7.97" rx="2.35" ry="2.35"/><rect class="cls-6" x="43.02" y="27.76" width="3.47" height="6.89" rx="1.74" ry="1.74"/><rect class="cls-6" x="63.09" y="30.72" width="2.47" height="5.31" rx=".99" ry=".99"/><rect class="cls-6" x="53.24" y="27.76" width="2.47" height="8.27" rx="1.24" ry="1.24"/><path class="cls-3" d="M51.94 68.41l5.51-9.29H46.44l5.5 9.29z"/><path d="M37.12 66.76v10.31c-.66-.14-1.3-.29-1.94-.45v-9.86zm31.58 9.86v-9.86h-1.93v10.31l1.93-.45zm-16.76-8.21l-5.5-11.96-4.81 2.87 10.21 9.09h.1zm0 0l5.51-11.96 4.8 2.87-10.2 9.09h-.11z" fill="#35c86f"/></g></g></svg>