<?xml version="1.0" encoding="utf-8"?>
<!-- Generator: Adobe Illustrator 22.1.0, SVG Export Plug-In . SVG Version: 6.00 Build 0)  -->
<svg version="1.1" id="Layer_1" xmlns="http://www.w3.org/2000/svg" xmlns:xlink="http://www.w3.org/1999/xlink" x="0px" y="0px"
	 viewBox="0 0 98.6 98.6" style="enable-background:new 0 0 98.6 98.6;" xml:space="preserve">
<style type="text/css">
	.st0{fill:#3D4E60;}
</style>
<title>2_1</title>
<g>
	<path class="st0" d="M93.6,51.9l-12-12V25.1c0-2.9-2.3-5.2-5.2-5.2c-2.9,0-5.2,2.3-5.2,5.2v4.4L53,11.3c-2-2-5.4-2-7.4,0L5.1,51.9
		c-2,2-2,5.4,0,7.4s5.4,2,7.4,0l4.7-4.7v28.9c0,2.9,2.3,5.2,5.2,5.2h53.7c2.9,0,5.2-2.3,5.2-5.2V54.6l4.7,4.7c1,1,2.4,1.5,3.7,1.5
		c1.3,0,2.7-0.5,3.7-1.5C95.6,57.3,95.6,53.9,93.6,51.9z M70.9,78.3H55V59.8H43.6v18.4H27.7V44.1l21.6-21.6l21.6,21.6V78.3z"/>
	<path class="st0" d="M45,41.1c0,3,2.5,5.5,5.5,5.5s5.5-2.5,5.5-5.5s-2.5-5.5-5.5-5.5C47.4,35.6,45,38.1,45,41.1z"/>
</g>
</svg>
