<?xml version="1.0" encoding="utf-8"?>
<!-- Generator: Adobe Illustrator 21.1.0, SVG Export Plug-In . SVG Version: 6.00 Build 0)  -->
<svg version="1.1" id="Icons" xmlns="http://www.w3.org/2000/svg" xmlns:xlink="http://www.w3.org/1999/xlink" x="0px" y="0px"
	 viewBox="0 0 320.1 121.6" style="enable-background:new 0 0 320.1 121.6;" xml:space="preserve">
<style type="text/css">
	.st0{fill:#F5F5F7;}
	.st1{fill:#6DBBF2;}
	.st2{fill:#87CDFF;}
	.st3{fill:#BAECDD;}
	.st4{fill:#FF9900;}
	.st5{fill:#FFBE5E;}
	.st6{fill:#F5FAFF;}
	.st7{fill:none;stroke:#C1D4E0;stroke-width:5;stroke-linecap:round;stroke-miterlimit:10;}
	.st8{fill:#FFF2B0;}
	.st9{fill:#88E8B3;}
	.st10{fill:#C1D4E6;}
</style>
<g>
	<ellipse class="st0" cx="160.1" cy="98.6" rx="160.1" ry="23.1"/>
	<polygon class="st1" points="49.3,46.9 32.9,55 43.9,100.4 59.7,94.2 	"/>
	<polygon class="st2" points="125,86.4 64.5,98.6 53.9,41.7 125,23 	"/>
	<polyline class="st3" points="122.8,63.1 110,56 102.5,67.9 88.9,54.2 75.2,85.5 125.5,73.9 	"/>
	<polygon class="st4" points="299,56.1 274.9,102.6 209.4,89.2 225,53.5 	"/>
	<polygon class="st5" points="284.3,48.3 274.9,102.6 205.7,88.4 207.9,36.3 	"/>
	<polygon class="st6" points="180.3,0 125,0 125,105.1 203.5,105.1 203.5,27.4 	"/>
	<line class="st7" x1="140.1" y1="41.7" x2="192.1" y2="41.7"/>
	<line class="st7" x1="140.1" y1="62.4" x2="192.1" y2="62.4"/>
	<polyline class="st1" points="60.1,95.9 43.5,101.7 25.5,50.3 48.3,42.1 	"/>
	<line class="st7" x1="140.1" y1="81.4" x2="175.3" y2="81.4"/>
	<polyline class="st2" points="125,86.4 61.2,100.9 46.9,36.1 125,18.7 	"/>
	<polygon class="st4" points="242.2,42 242.5,31.4 214.7,26.4 214.5,37.4 	"/>
	<circle class="st8" cx="69.1" cy="50.8" r="7.6"/>
	<polyline class="st9" points="124.8,62.7 109.5,55.3 102,67.2 88.3,53.5 74.6,84.8 125,73.2 	"/>
	<polygon class="st10" points="203.3,28.1 180.6,28.1 180.6,2.5 	"/>
</g>
</svg>
