<svg xmlns="http://www.w3.org/2000/svg" viewBox="0 0 73.99 73.99"><path fill="#000" d="M36.18,26.16H30V37.61h6.14a7.76,7.76,0,0,0,5.14-1.48,5.26,5.26,0,0,0,1.73-4.22,5.33,5.33,0,0,0-1.73-4.24A7.6,7.6,0,0,0,36.18,26.16Z"/><path fill="#000" d="M70.06,0H3.92A3.93,3.93,0,0,0,0,3.92V70.06A3.93,3.93,0,0,0,3.92,74H70.06A3.93,3.93,0,0,0,74,70.06V3.92A3.93,3.93,0,0,0,70.06,0ZM43.16,56.54,36.07,46.15H30V56.54H19V17.45H36.85a22.37,22.37,0,0,1,9.22,1.76,13.22,13.22,0,0,1,8.15,12.7,13.62,13.62,0,0,1-2,7.4,13.4,13.4,0,0,1-5.67,4.94L55,56.54Z"/></svg>