<svg xmlns="http://www.w3.org/2000/svg" viewBox="0 0 103.88 103.88"><defs><style>.cls-1{fill:#edf1f7;}.cls-2{fill:#f9fafc;}.cls-3{fill:#e8c290;}.cls-4{fill:#8ae6ae;}.cls-5{fill:#eecda2;}.cls-6{fill:#80633f;}.cls-7{fill:#35c86f;}</style></defs><title>shipper</title><g id="Layer_2" data-name="Layer 2"><g id="Icons"><circle class="cls-1" cx="51.94" cy="51.94" r="51.94"/><circle class="cls-2" cx="51.94" cy="51.94" r="47.7"/><rect class="cls-3" x="46.44" y="54.49" width="11.01" height="7.48"/><path class="cls-4" d="M68.7,76.62a62.62,62.62,0,0,0,9.13-3V67.9a8.76,8.76,0,0,0-8.77-8.77H34.83a8.76,8.76,0,0,0-8.77,8.77v5.7a62.09,62.09,0,0,0,9.12,3c.64.16,1.28.31,1.94.45L50,78.61H50c.64,0,1.28,0,1.92,0a69.22,69.22,0,0,0,14.83-1.57Z"/><path class="cls-3" d="M37.77,36.73h.56a0,0,0,0,1,0,0v6.46a0,0,0,0,1,0,0h-.56a2.07,2.07,0,0,1-2.07-2.07V38.81A2.07,2.07,0,0,1,37.77,36.73Z"/><path class="cls-3" d="M67.63,36.73h.56a0,0,0,0,1,0,0v6.46a0,0,0,0,1,0,0h-.56a2.07,2.07,0,0,1-2.07-2.07V38.81A2.07,2.07,0,0,1,67.63,36.73Z" transform="translate(133.75 79.92) rotate(180)"/><path class="cls-5" d="M38.32,31.79H65.56a0,0,0,0,1,0,0V42.85A13.26,13.26,0,0,1,52.3,56.11h-.72A13.26,13.26,0,0,1,38.32,42.85V31.79A0,0,0,0,1,38.32,31.79Z"/><path class="cls-6" d="M48.07,21.77h7.75a9.74,9.74,0,0,1,9.74,9.74v.33H38.32v-.33A9.75,9.75,0,0,1,48.07,21.77Z"/><rect class="cls-6" x="38.32" y="29.28" width="4.69" height="6.45" rx="2.11" ry="2.11"/><rect class="cls-6" x="58.39" y="27.76" width="4.69" height="7.97" rx="2.35" ry="2.35"/><rect class="cls-6" x="43.02" y="27.76" width="3.47" height="6.89" rx="1.74" ry="1.74"/><rect class="cls-6" x="63.09" y="30.72" width="2.47" height="5.31" rx="0.99" ry="0.99"/><rect class="cls-6" x="53.24" y="27.76" width="2.47" height="8.27" rx="1.24" ry="1.24"/><polygon class="cls-3" points="51.94 68.41 57.45 59.12 46.44 59.12 51.94 68.41"/><path class="cls-7" d="M37.12,66.76V77.07c-.66-.14-1.3-.29-1.94-.45V66.76Z"/><polygon class="cls-7" points="68.7 76.62 68.7 66.76 66.77 66.76 66.77 77.07 68.7 76.62"/><polygon class="cls-7" points="51.94 68.41 46.44 56.45 41.63 59.32 51.84 68.41 51.94 68.41"/><polygon class="cls-7" points="51.94 68.41 57.45 56.45 62.25 59.32 52.05 68.41 51.94 68.41"/></g></g></svg>